<svg xmlns="http://www.w3.org/2000/svg" viewBox="0 0 80 80" fill="none">
  <circle cx="40" cy="40" r="36" fill="url(#bg)" stroke="url(#ring)" stroke-width="1.5"/>
  <!-- Cloud shape -->
  <path d="M24 48 C18 48 16 44 18 40 C16 36 19 32 24 33 C25 28 30 25 36 26 C39 22 45 22 48 26 C54 26 58 30 57 35 C61 36 62 41 59 44 C57 47 54 48 51 48 Z" fill="url(#cloud)" filter="url(#glow)"/>
  <!-- AWS arrow swoosh beneath -->
  <path d="M26 54 Q40 60 54 54" stroke="url(#g1)" stroke-width="2.5" stroke-linecap="round" fill="none" opacity="0.7"/>
  <polyline points="51,51 54,54 51,57" stroke="url(#g1)" stroke-width="2.5" stroke-linecap="round" stroke-linejoin="round" fill="none" opacity="0.7"/>
  <defs>
    <radialGradient id="bg" cx="50%" cy="50%" r="50%"><stop offset="0%" stop-color="#1a1040"/><stop offset="100%" stop-color="#0d0d1a"/></radialGradient>
    <linearGradient id="ring" x1="0%" y1="0%" x2="100%" y2="100%"><stop offset="0%" stop-color="#7c3aed" stop-opacity="0.8"/><stop offset="100%" stop-color="#a78bfa" stop-opacity="0.3"/></linearGradient>
    <linearGradient id="cloud" x1="0%" y1="0%" x2="100%" y2="100%"><stop offset="0%" stop-color="#a78bfa" stop-opacity="0.3"/><stop offset="100%" stop-color="#7c3aed" stop-opacity="0.3"/></linearGradient>
    <linearGradient id="g1" x1="0%" y1="0%" x2="100%" y2="100%"><stop offset="0%" stop-color="#c4b5fd"/><stop offset="100%" stop-color="#7c3aed"/></linearGradient>
    <filter id="glow" x="-20%" y="-20%" width="140%" height="140%"><feGaussianBlur stdDeviation="2" result="blur"/><feMerge><feMergeNode in="blur"/><feMergeNode in="SourceGraphic"/></feMerge></filter>
  </defs>
</svg>
