<svg xmlns="http://www.w3.org/2000/svg" viewBox="0 0 80 80" fill="none">
  <circle cx="40" cy="40" r="36" fill="url(#bg)" stroke="url(#ring)" stroke-width="1.5"/>
  <!-- B letter Bootstrap style -->
  <rect x="24" y="20" width="24" height="40" rx="5" fill="url(#square)" opacity="0.15"/>
  <rect x="24" y="20" width="24" height="40" rx="5" stroke="url(#g1)" stroke-width="2" filter="url(#glow)"/>
  <path d="M30 40 L40 40 C44 40 47 37 47 33.5 C47 30 44 27 40 27 L30 27 Z" fill="url(#g1)" filter="url(#glow)"/>
  <path d="M30 40 L41 40 C45.5 40 49 43 49 47 C49 51 45.5 54 41 54 L30 54 Z" fill="url(#g1)" filter="url(#glow)" opacity="0.85"/>
  <defs>
    <radialGradient id="bg" cx="50%" cy="50%" r="50%"><stop offset="0%" stop-color="#1a1040"/><stop offset="100%" stop-color="#0d0d1a"/></radialGradient>
    <linearGradient id="ring" x1="0%" y1="0%" x2="100%" y2="100%"><stop offset="0%" stop-color="#7c3aed" stop-opacity="0.8"/><stop offset="100%" stop-color="#a78bfa" stop-opacity="0.3"/></linearGradient>
    <linearGradient id="square" x1="0%" y1="0%" x2="100%" y2="100%"><stop offset="0%" stop-color="#a78bfa"/><stop offset="100%" stop-color="#7c3aed"/></linearGradient>
    <linearGradient id="g1" x1="0%" y1="0%" x2="100%" y2="100%"><stop offset="0%" stop-color="#c4b5fd"/><stop offset="100%" stop-color="#7c3aed"/></linearGradient>
    <filter id="glow" x="-20%" y="-20%" width="140%" height="140%"><feGaussianBlur stdDeviation="1.5" result="blur"/><feMerge><feMergeNode in="blur"/><feMergeNode in="SourceGraphic"/></feMerge></filter>
  </defs>
</svg>
