<svg xmlns="http://www.w3.org/2000/svg" viewBox="0 0 80 80" fill="none">
  <circle cx="40" cy="40" r="36" fill="url(#bg)" stroke="url(#ring)" stroke-width="1.5"/>
  <!-- Docker whale body -->
  <path d="M18 46 C18 46 16 42 20 40 C22 36 26 36 28 38 C29 34 33 32 37 34 C38 30 43 29 46 32 C49 29 56 30 56 36 L56 42 C60 42 63 44 62 48 C61 52 56 52 52 52 L28 52 C22 52 18 50 18 46 Z" fill="url(#whale)" filter="url(#glow)"/>
  <!-- Container boxes on whale -->
  <rect x="28" y="36" width="7" height="7" rx="1" fill="#0d0d1a" opacity="0.5"/>
  <rect x="37" y="36" width="7" height="7" rx="1" fill="#0d0d1a" opacity="0.5"/>
  <rect x="46" y="36" width="7" height="7" rx="1" fill="#0d0d1a" opacity="0.5"/>
  <!-- Wave -->
  <path d="M22 52 Q30 56 40 52 Q50 48 58 52" stroke="url(#g1)" stroke-width="2" fill="none" stroke-linecap="round" opacity="0.5"/>
  <defs>
    <radialGradient id="bg" cx="50%" cy="50%" r="50%"><stop offset="0%" stop-color="#1a1040"/><stop offset="100%" stop-color="#0d0d1a"/></radialGradient>
    <linearGradient id="ring" x1="0%" y1="0%" x2="100%" y2="100%"><stop offset="0%" stop-color="#7c3aed" stop-opacity="0.8"/><stop offset="100%" stop-color="#a78bfa" stop-opacity="0.3"/></linearGradient>
    <linearGradient id="whale" x1="0%" y1="0%" x2="100%" y2="100%"><stop offset="0%" stop-color="#a78bfa"/><stop offset="100%" stop-color="#7c3aed"/></linearGradient>
    <linearGradient id="g1" x1="0%" y1="0%" x2="100%" y2="100%"><stop offset="0%" stop-color="#c4b5fd"/><stop offset="100%" stop-color="#7c3aed"/></linearGradient>
    <filter id="glow" x="-20%" y="-20%" width="140%" height="140%"><feGaussianBlur stdDeviation="2" result="blur"/><feMerge><feMergeNode in="blur"/><feMergeNode in="SourceGraphic"/></feMerge></filter>
  </defs>
</svg>
